<svg width="277" height="277" viewBox="0 0 277 277" fill="none" xmlns="http://www.w3.org/2000/svg">
<rect width="277" height="277" fill="white"/>
<path d="M103.407 94.1883C109.909 89.5651 136.47 91.9098 145.497 91.5061C152.487 91.1931 170.739 90.3402 175.463 94.7247C183.011 101.728 178.929 126.456 179.476 136.452C179.626 139.187 176.031 144.177 173.87 145.408C165.899 151.189 136.391 144.595 129.879 149.139C124.497 153.515 118.761 157.422 113.718 161.509L112.403 162.692L111.383 162.584C109.824 160.471 110.511 150.872 110.581 147.819C90.5966 144.013 99.5134 117.966 97.9949 103.042C97.6613 99.7925 100.863 96.1772 103.407 94.1883Z" fill="#FD8326"/>
<path d="M103.407 94.1875C102.585 97.8038 100.205 101.115 99.9914 103.959C99.1798 114.848 100.185 125.888 99.6378 136.829C103.083 143.526 105.558 144.132 112.632 145.691C112.119 151.204 112.388 154.71 112.533 160.183L113.718 161.508L112.403 162.692L111.383 162.583C109.824 160.47 110.511 150.872 110.581 147.818C90.5966 144.012 99.5134 117.965 97.9949 103.042C97.6613 99.7917 100.863 96.1764 103.407 94.1875Z" fill="#FB5704"/>
<path d="M112.533 160.185C116.421 156.673 121.011 153.005 125.373 150.086C127.339 148.769 127.643 149.109 129.879 149.14C124.497 153.516 118.761 157.423 113.718 161.509L112.533 160.185Z" fill="#FB5704"/>
<path d="M118.486 114.733C120.289 114.25 122.206 114.786 123.5 116.133C124.79 117.479 125.248 119.423 124.69 121.205C124.132 122.987 122.654 124.325 120.826 124.696C118.118 125.246 115.464 123.543 114.832 120.851C114.2 118.158 115.818 115.45 118.486 114.733Z" fill="#FEFDFE"/>
<path d="M156.514 114.789C159.148 114.04 161.896 115.511 162.737 118.118C163.584 120.724 162.215 123.53 159.641 124.467C157.893 125.104 155.936 124.735 154.542 123.504C153.148 122.273 152.536 120.377 152.944 118.561C153.358 116.744 154.727 115.298 156.514 114.789Z" fill="#FEFDFE"/>
<path d="M137.67 114.818C140.388 114.083 143.181 115.702 143.898 118.427C144.615 121.151 142.977 123.938 140.254 124.637C137.55 125.331 134.802 123.711 134.09 121.012C133.378 118.312 134.981 115.545 137.67 114.818Z" fill="#FEFDFE"/>
<path d="M59.4799 176.053C61.9593 175.982 64.4337 175.926 66.9131 175.885C75.601 175.75 80.5697 176.979 88.5057 183.425C95.9539 189.473 98.8017 206.079 94.5648 214.28C93.1907 216.94 77.5128 215.945 73.4054 215.884C67.1969 215.848 41.3376 217.168 37.8126 214.434C36.1547 213.149 35.5025 211.024 35.2486 209.022C34.2529 201.176 36.2543 192.265 41.1483 186C45.5744 180.333 52.4102 176.907 59.4799 176.053Z" fill="#FD8326"/>
<path d="M240.032 213.222C239.594 214.104 238.842 214.721 238.125 215.399C233.346 217.434 192.745 215.34 185.043 215.326C178.725 215.315 180.836 201.373 181.428 197.287C185.092 172.232 224.539 168.533 236.796 187.569C240.774 192.654 242.94 208.271 240.032 213.222Z" fill="#FD8326"/>
<path d="M240.032 213.221C239.618 212.515 239.628 207.818 239.494 206.245L239.459 206.565C239.2 201.613 239.394 192.013 236.561 188.506L236.492 188.424L236.795 187.568C240.773 192.653 242.939 208.27 240.032 213.221Z" fill="#FB5704"/>
<path d="M207.472 131.926C218.35 129.889 228.821 137.065 230.852 147.956C232.888 158.846 225.719 169.326 214.84 171.363C203.967 173.4 193.497 166.223 191.46 155.333C189.429 144.443 196.598 133.962 207.472 131.926Z" fill="#FB5704"/>
<path d="M206.988 134.157C216.617 131.881 226.276 137.835 228.576 147.472C230.881 157.107 224.961 166.793 215.348 169.129C205.684 171.475 195.961 165.518 193.645 155.84C191.335 146.162 197.315 136.443 206.988 134.157Z" fill="#FD8326"/>
<path d="M61.8343 132.023C72.658 129.765 83.2626 136.725 85.508 147.564C87.7584 158.403 80.7981 169.013 69.9694 171.257C59.1507 173.5 48.566 166.541 46.3206 155.711C44.0752 144.881 51.0205 134.278 61.8343 132.023Z" fill="#FB5704"/>
<path d="M61.9839 133.596C65.6681 133.359 68.0181 133.088 71.5579 134.392C75.979 136.018 79.5686 139.346 81.5302 143.635C84.8859 150.955 83.3574 160.876 76.7756 165.928C74.7244 167.501 72.3097 168.565 69.9747 169.639C51.0058 176.063 36.7518 142.658 61.9839 133.596Z" fill="#FD8326"/>
<path d="M149.823 199.823C151.376 199.83 151.994 199.674 153.318 200.535C152.945 201.756 152.352 201.862 151.292 202.5C150.799 202.557 150.296 202.618 149.798 202.625C148.618 202.642 148.255 202.418 147.448 201.625C148.081 200.373 148.573 200.358 149.823 199.823Z" fill="#FB5704"/>
<path d="M124.118 199.878C125.283 199.764 127.449 199.771 128.549 200.216C129.764 200.708 129.859 201.275 130.317 202.398C129.187 202.603 127.618 202.547 126.518 202.24C125.129 201.853 124.75 201.045 124.118 199.878Z" fill="#FB5704"/>
<path d="M135.823 201.451C137.436 201.394 139.966 201.024 141.449 201.631C142.286 201.974 142.271 202.289 142.619 203.093C140.663 203.265 138.074 203.826 136.281 202.894L135.823 201.451Z" fill="#FB5704"/>
<path d="M77.8214 104.354C78.4138 104.736 78.4736 105.149 78.6926 105.823C78.5184 107.666 77.2837 109.316 76.2879 110.894L75.5262 110.158C75.1876 108.101 76.726 105.99 77.8214 104.354Z" fill="#FB5704"/>
<path d="M202.647 115.662C203.335 115.814 203.812 116.21 204.395 116.615C205.326 118.242 205.177 119.688 205.167 121.537C204.694 121.517 204.116 121.27 203.653 121.105C202.563 119.676 202.712 117.501 202.647 115.662Z" fill="#FB5704"/>
<path d="M96.641 77.502L97.5321 78.0005C97.333 79.4043 95.0777 81.6039 94.0272 82.7915L92.9717 81.478C93.6986 79.5473 94.9183 78.9773 96.641 77.502Z" fill="#FB5704"/>
<path d="M126.438 62.3594L127.275 62.7763L127.37 63.5488C125.941 64.554 124.308 64.7011 122.59 64.9903L121.843 64.5988L121.749 63.8418C123.172 62.7983 124.716 62.6594 126.438 62.3594Z" fill="#FB5704"/>
<path d="M154.145 62.8164C157.057 63.039 159.203 63.3015 159.78 66.2678C157.49 65.619 154.528 65.3396 154.145 62.8164Z" fill="#F86B09"/>
<path d="M143.037 61.3471C145.83 60.72 147.861 60.7834 149.753 62.8878C147.079 63.5434 144.814 63.5754 143.037 61.3471Z" fill="#FB5704"/>
<path d="M106.03 70.6465L106.483 71.4579C106.045 72.6302 103.591 74.4776 102.515 75.3955C101.813 74.6029 102.003 74.9348 101.863 73.7855C102.59 72.3409 104.572 71.4665 106.03 70.6465Z" fill="#FB5704"/>
<path d="M113.777 196.821C114.788 196.783 115.993 196.983 116.964 197.248C118.557 197.682 119.1 198.387 119.881 199.718C118.871 199.607 117.81 199.5 116.819 199.25C115.375 198.882 114.534 198.062 113.777 196.821Z" fill="#FB5704"/>
<path d="M195.408 95.3418C197.873 96.0661 198.634 99.0673 198.709 101.338C196.752 100.131 195.403 97.6422 195.408 95.3418Z" fill="#FB5704"/>
<path d="M82.6256 94.4512C84.2885 96.1689 81.7344 99.2309 80.5794 100.762L80.0317 99.7882C80.3305 97.757 81.5204 96.1729 82.6256 94.4512Z" fill="#FB5704"/>
<path d="M164.227 66.6367C166.462 67.0014 169.051 67.8145 169.628 70.1587C167.134 69.8127 164.909 69.1591 164.227 66.6367Z" fill="#FB5704"/>
<path d="M89.3617 85.4863L89.6803 86.3178C89.4214 87.8221 87.6839 90.0163 86.7529 91.3582C86.484 90.9206 86.2998 90.1464 86.1504 89.63C86.4939 87.9971 88.132 86.6836 89.3617 85.4863Z" fill="#FB5704"/>
<path d="M173.626 72.0605C176.111 72.1507 177.724 74.1725 178.685 76.2463C176.101 75.9692 174.468 74.4355 173.626 72.0605Z" fill="#FB5704"/>
<path d="M200.213 104.963C201.985 105.986 202.628 109.398 202.503 111.299C200.372 110.384 199.87 107.018 200.213 104.963Z" fill="#FB5704"/>
<path d="M189.578 86.5352C191.853 87.398 193.113 89.68 193.247 92.0242C191.296 91.6967 189.991 88.211 189.578 86.5352Z" fill="#FB5704"/>
<path d="M114.852 66.0449L115.843 66.1314L116.192 66.716C115.395 67.8797 113.648 68.6352 112.358 69.3201C111.835 69.2974 111.581 69.0135 111.158 68.6862C111.681 67.4386 113.578 66.7043 114.852 66.0449Z" fill="#FB5704"/>
<path d="M74.1762 115.26C74.6641 115.585 74.8383 116.045 75.1022 116.564C74.9927 118.773 74.7586 119.332 73.9372 121.4C73.6484 121.13 73.2352 120.567 72.9763 120.233C72.8817 118.209 73.4393 117.105 74.1762 115.26Z" fill="#FB5704"/>
<path d="M105.184 192.217C105.91 192.266 106.737 192.466 107.404 192.768C108.594 193.307 109.64 194.014 110.122 195.267C109.102 195.324 107.534 195.127 106.662 194.579C105.577 193.894 105.467 193.418 105.184 192.217Z" fill="#FB5704"/>
<path d="M162.065 196.719C162.434 196.782 162.847 197.162 163.151 197.377C162.359 198.667 160.965 199.071 159.626 199.741L158.441 199.517L158.296 198.8C159.292 197.678 160.706 197.25 162.065 196.719Z" fill="#F86B09"/>
<path d="M181.881 78.9395C184.998 79.5116 185.431 80.7212 186.82 83.4152C184.196 83.1487 183.2 80.973 181.881 78.9395Z" fill="#FB5704"/>
</svg>
