<svg width="277" height="277" viewBox="0 0 277 277" fill="none" xmlns="http://www.w3.org/2000/svg">
<rect width="277" height="277" fill="white"/>
<path d="M68.0751 59.2404C114.67 58.5756 161.542 59.5349 208.162 59.2163C211.018 58.6039 218.082 62.809 218.186 66.174C219.621 112.676 218.412 159.687 218.689 206.289C218.728 213.458 215.591 216.596 209.553 218.598L114.266 218.572C105.466 218.576 73.5653 219.898 67.1329 217.817C64.7257 217.038 62.0028 215.268 60.8337 212.943C59.714 210.714 59.5019 207.522 59.3884 205.062C58.5203 186.144 59.3786 166.801 59.3786 147.838C59.3786 136.676 58.1305 72.2012 60.2862 65.9914C61.5638 62.3014 64.8343 60.8438 68.0751 59.2404Z" fill="#FB5704"/>
<path d="M61.9289 87.916C78.2812 88.4272 97.1196 87.9837 113.576 87.9694L216.454 88.037L216.385 171.593L216.464 195.371C216.489 201.468 217.697 209.643 213.416 214.182C208.493 216.745 195.539 215.921 189.432 215.909L157.517 215.824L73.7923 215.956C60.2666 215.898 61.7859 210.481 61.7316 199.27C61.6774 188.667 61.7612 178.01 61.7563 167.406C61.6083 140.909 61.6675 114.412 61.9289 87.916Z" fill="#FEFDFE"/>
<path d="M138.022 122.768C133.972 122.475 130.021 122.652 125.976 122.814C122.365 122.959 117.442 123.568 114.566 120.848C112.869 119.243 112.421 117.004 112.371 114.767C112.292 111.337 111.74 105.565 114.256 102.979C116.066 101.112 119.894 101.217 122.37 101.18C128.275 101.09 161.191 100.064 163.954 102.802C166.045 104.877 165.858 108.269 165.863 110.995C165.868 114.35 166.376 118.551 163.781 121.1C160.639 124.189 145.13 122.768 140.365 122.688C140.276 124.616 140.173 126.542 140.054 128.468C140.069 130.062 139.901 133.384 140.582 134.634C142.368 134.657 141.726 133.168 143.892 133.324L144.129 134.179C142.565 136.081 140.695 138.003 139.235 139.874C137.953 138.403 135.422 135.368 134.1 134.165L134.248 133.604C136.621 133.303 137.366 134.568 138.268 133.531C138.071 130.206 138.096 126.153 138.022 122.768Z" fill="#FB5704"/>
<path d="M138.269 133.533C138.827 130.999 138.393 127.087 139.251 122.992C139.794 124.139 139.927 127.071 140.055 128.469C140.07 130.063 139.902 133.386 140.583 134.636C142.368 134.658 141.727 133.169 143.893 133.326L144.129 134.181C142.566 136.082 140.696 138.004 139.236 139.876C137.954 138.405 135.423 135.369 134.101 134.167L134.249 133.606C136.622 133.304 137.367 134.57 138.269 133.533Z" fill="#FD4C02"/>
<path d="M116.081 103.729C130.1 103.225 144.973 103.418 159.051 103.615C159.904 103.627 161.912 103.854 162.514 104.518C164.556 106.757 163.145 113.738 163.48 116.981C163.614 118.238 162.583 119.504 161.69 120.263C156.022 120.511 117.995 121.263 115.751 119.603C114.981 119.03 114.656 117.338 114.537 116.443C114.083 112.956 113.881 106.607 116.081 103.729Z" fill="#FC9F4F"/>
<path d="M79.9974 183.243C92.0038 182.947 107.236 182.396 118.932 183.791C121.714 184.123 125.626 200.839 117.127 204.259C104.553 203.932 91.4761 204.86 79.1095 203.514C74.6552 203.029 75.4542 189.708 76.3027 186.728C76.8453 184.83 78.4485 184.042 79.9974 183.243Z" fill="#FB5704"/>
<path d="M79.8099 185.246C85.4777 184.948 115.03 184.541 118.488 186.132C120.535 188.286 120.397 198.71 117.886 201.353C106.758 201.649 95.6788 201.431 84.4271 201.588C75.1287 201.718 78.5323 196.9 78.0292 189.929C77.896 188.024 78.3794 186.573 79.8099 185.246Z" fill="#FC9F4F"/>
<path d="M160.708 183.185C173.247 183.058 187.192 182.354 199.475 183.832C202.775 184.229 204.866 201.767 198.232 204.216C186.24 203.851 173.375 204.985 161.477 203.831C154.576 203.161 156.673 192.113 156.727 187.509C156.752 185.681 159.341 184.019 160.708 183.185Z" fill="#FB5704"/>
<path d="M160.733 185.269C166.001 185.042 195.416 184.517 198.543 185.867C201.212 188.47 201.518 198.41 198.612 201.424C192.663 201.488 163.106 202.266 160.023 200.637C158.05 198.201 158.173 187.761 160.733 185.269Z" fill="#FC9F4F"/>
<path d="M138.263 142.445C139.363 142.538 141.85 143.365 142.442 144.144C144.454 146.802 158.177 158.033 157.205 160.964C155.395 166.433 144.479 176.143 139.862 179.787C134.875 178.625 126.696 167.638 121.911 164.031C116.88 160.237 135.111 144.795 138.263 142.445Z" fill="#FB5704"/>
<path d="M138.95 144.742C141.899 146.997 158.38 160.053 153.862 163.57C151.099 165.715 145.515 172.37 143.049 173.996C141.165 175.897 140.834 176.319 138.382 176.396C136.636 175.801 135.265 174.243 133.933 172.942C131.664 170.731 123.895 163.607 123.392 160.992C124.58 157.725 135.891 146.801 138.95 144.742Z" fill="#FD8326"/>
<path d="M133.933 172.941C135.822 171.871 141.263 172.966 143.049 173.996C141.165 175.897 140.834 176.319 138.383 176.396C136.636 175.801 135.265 174.243 133.933 172.941Z" fill="#FC9F4F"/>
<path d="M160.763 162.059C163.634 161.604 173.519 161.81 176.972 161.824C182.822 166.925 181.184 169.04 181.737 176.813C182.995 177.427 182.862 176.246 184.978 175.799L185.175 176.483C184.475 178.335 182.659 180.248 181.347 181.8C179.803 181.705 175.379 177.98 176.607 175.812C177.83 175.705 177.85 176.047 179.039 176.919C180.163 175.478 179.646 167.716 178.708 166.353C175.754 162.04 166.583 165.63 162.173 164.083C161.177 163.733 161.123 162.955 160.763 162.059Z" fill="#FB5704"/>
<path d="M101.396 161.921C105.372 161.812 114.31 160.892 117.003 163.043L116.944 163.726C114.976 164.567 107.552 163.833 104.78 164.228C97.4449 165.277 98.4512 170.486 99.1763 176.521C100.296 176.021 100.543 175.916 101.761 175.957L102.106 176.54C101.48 178.42 99.2552 180.671 97.8938 182.239C96.2857 180.75 93.1829 178.294 93.2816 176.087L94.056 175.65C95.0524 176.232 95.5458 176.495 96.631 176.949C97.3216 175.503 97.0602 168.355 97.0651 166.424C98.6288 164.29 99.4279 163.632 101.396 161.921Z" fill="#FB5704"/>
<path d="M70.3392 61.3669C76.3868 61.1096 82.829 61.042 88.8767 61.2218C129.326 62.4251 171.674 59.4089 211.926 61.6108C218.718 68.0257 216.75 77.2108 216.651 85.8731L207.758 85.8573C198.178 86.0094 188.465 85.8944 178.861 86C173.884 85.7422 168.088 86.8189 163.18 86.5112C144.751 85.3565 126.297 86.5645 107.922 86.4949C92.3741 86.4356 77.0083 85.8262 61.4404 85.9314C61.3466 77.1876 58.7767 63.0113 70.3392 61.3669Z" fill="#FD8326"/>
<path d="M78.1776 70.2657C80.3628 69.6504 82.6319 70.9053 83.2781 73.082C83.9194 75.2587 82.6961 77.5492 80.5306 78.2226C79.105 78.6662 77.5511 78.307 76.461 77.2821C75.3758 76.2572 74.9219 74.7254 75.2771 73.2726C75.6323 71.8198 76.7421 70.671 78.1776 70.2657Z" fill="#FEFDFE"/>
<path d="M92.6646 70.307C94.835 69.666 97.1139 70.9119 97.7503 73.0875C98.3866 75.2631 97.1386 77.542 94.9633 78.1736C92.7928 78.803 90.5287 77.5571 89.8923 75.3881C89.2609 73.2191 90.4991 70.946 92.6646 70.307Z" fill="#FEFDFE"/>
<path d="M107.552 70.3666C109.688 69.8711 111.829 71.1783 112.362 73.3062C112.899 75.4342 111.632 77.5995 109.52 78.1757C108.115 78.5582 106.615 78.1516 105.594 77.1124C104.573 76.0731 104.193 74.5634 104.597 73.1645C105.007 71.7655 106.137 70.6956 107.552 70.3666Z" fill="#FEFDFE"/>
</svg>
