<svg width="277" height="277" viewBox="0 0 277 277" fill="none" xmlns="http://www.w3.org/2000/svg">
<rect width="277" height="277" fill="white"/>
<path d="M160.794 118.777C162.151 117.626 163.322 116.954 165.149 116.849C174.11 116.33 183.484 116.739 192.493 116.706C201.778 116.673 211.041 116.51 220.299 116.685C223.183 116.739 226.111 117.891 228.077 120.089C228.845 122.257 229.115 124.517 229.237 126.805C229.687 135.192 229.909 202.958 228.553 205.833C227.841 207.345 226.107 209.381 224.498 209.966C220.846 211.294 172.679 211.037 166.785 210.641C165.26 210.538 163.653 210.267 162.274 209.586C160.665 208.793 159.643 207.645 159.073 205.944C158.635 204.637 158.382 203.349 158.339 201.971C158.263 200.104 158.295 198.124 158.312 196.234C158.533 172.123 157.931 147.939 158.637 123.849C158.703 121.595 159.162 120.345 160.794 118.777Z" fill="#FEFDFE"/>
<path d="M160.793 118.777C162.15 117.626 163.322 116.954 165.148 116.849C174.109 116.33 183.484 116.739 192.492 116.706C201.778 116.673 211.041 116.51 220.299 116.685C223.183 116.739 226.111 117.891 228.077 120.089C228.845 122.257 229.114 124.517 229.237 126.805C229.686 135.192 229.909 202.958 228.553 205.833C227.84 207.345 226.107 209.381 224.498 209.966C220.846 211.294 172.678 211.037 166.784 210.641C165.26 210.538 163.653 210.267 162.274 209.586C160.665 208.793 159.643 207.645 159.073 205.944C158.635 204.637 158.382 203.349 158.338 201.971L159.184 201.924C159.705 198.577 159.726 192.139 159.743 188.635C161.432 191.499 158.413 196.492 161.522 198.002C162.887 197.7 163.419 197.609 163.814 195.959C163.988 196.105 164.167 196.244 164.351 196.376C167.957 198.927 210.937 196.536 217.923 197.49C219.72 197.735 222.326 197.035 223.514 195.352C224.039 192.809 223.989 190.166 223.985 187.575C223.953 167.996 223.873 148.416 223.869 128.841C223.869 127.337 223.488 125.312 222.726 124.021C220.248 121.902 174.252 123.404 167.819 123.122C161.993 122.867 163.425 134.259 163.407 139.217C162.866 135.99 162.615 131.344 161.562 128.476L161.71 129.496C160.094 127.282 160.899 127.472 159.696 125.305C159.534 123.162 160.32 120.936 160.793 118.777Z" fill="#F86B09"/>
<path d="M192.259 201.166C193.325 200.675 194.577 200.836 195.484 201.58C196.392 202.324 196.797 203.522 196.527 204.665C196.256 205.808 195.358 206.697 194.214 206.954C192.682 207.299 191.136 206.43 190.633 204.941C190.131 203.452 190.832 201.822 192.259 201.166Z" fill="#FEFDFE"/>
<path d="M160.794 118.775C160.32 120.934 159.534 123.16 159.696 125.303C160.899 127.47 160.094 127.28 161.71 129.494L161.563 128.474C162.616 131.342 162.867 135.988 163.407 139.214C163.536 147.098 162.483 191.584 163.815 195.957C163.419 197.607 162.887 197.698 161.522 198C158.413 196.489 161.432 191.497 159.743 188.633C159.726 192.137 159.705 198.575 159.184 201.922L158.339 201.969C158.263 200.102 158.295 198.122 158.312 196.232C158.533 172.121 157.931 147.937 158.637 123.846C158.703 121.593 159.162 120.343 160.794 118.775Z" fill="#FD8326"/>
<path d="M160.794 118.775C160.32 120.934 159.534 123.16 159.696 125.303C160.374 136.507 159.496 149.46 159.439 160.81C159.416 165.319 159.678 169.914 159.749 174.442C159.819 178.849 159.244 184.362 159.743 188.633C159.726 192.137 159.705 198.575 159.184 201.922L158.339 201.969C158.263 200.102 158.295 198.122 158.312 196.232C158.533 172.121 157.931 147.937 158.637 123.846C158.703 121.593 159.162 120.343 160.794 118.775Z" fill="#FB5704"/>
<path d="M172.761 132.424C174.482 132.317 181.147 132.182 182.593 132.328C188.04 132.876 212.228 130.877 215.703 133.688C216.603 135.429 216.719 139.789 216.42 141.798C215.649 146.972 218.495 155.752 214.648 159.558C209.289 159.894 174.724 160.236 171.986 158.576C170.877 156.879 170.701 152.497 170.876 150.533C171.316 145.583 169.181 136.088 172.761 132.424Z" fill="#FEBD84"/>
<path d="M179.455 165.102C185.545 165.183 211.574 164.494 215.502 165.789C217.094 167.782 216.979 175.602 215.15 177.695C213.492 178.47 210.99 178.21 209.099 178.164C203.516 178.197 174.291 179.138 171.595 177.127C170.463 174.51 171.035 168.6 171.193 165.545C173.295 165.269 177.213 165.206 179.455 165.102Z" fill="#FEBD84"/>
<path d="M171.902 183.288C185.961 182.873 200.76 183.109 214.856 183.281C215.671 183.292 216.131 184.338 216.481 184.951C216.579 186.529 216.319 186.966 215.649 188.412C209.983 188.753 202.807 188.352 196.97 188.481C189.997 188.636 182.712 188.54 175.718 188.522C173.39 188.517 172.701 188.449 171.253 186.868C170.923 185.355 171.296 184.728 171.902 183.288Z" fill="#FEBD84"/>
<path d="M102.26 84.9627L157.078 84.9794C161.17 84.9764 189.133 84.182 190.461 86.512C192.502 90.0951 191.627 106.968 191.583 112.299C182.923 112.434 174.02 111.978 165.359 112.431C161.573 112.629 160.005 113.464 157.246 115.973C155.959 117.214 155.094 119.095 154.247 120.694C137.529 120.355 120.687 120.669 103.956 120.762C95.7142 120.808 87.2455 121.207 79.0273 120.605C77.4233 120.487 74.3208 120.333 73.1465 119.19C72.2649 118.331 72.2297 115.111 72.1986 113.857C72.0941 109.662 71.2494 88.7453 73.5984 86.3366C74.3235 85.5932 75.1672 85.2755 76.1787 85.1078C81.7691 84.1815 95.7137 84.9682 102.26 84.9627Z" fill="#FEBD84"/>
<path d="M83.17 212.087C75.8702 212.746 58.0313 212.821 50.9673 211.237C46.0215 210.129 47.0939 194.793 47.1064 189.812C47.138 177.188 46.9431 163.188 47.1704 150.447C47.2643 145.192 52.8995 143.553 56.7645 143.603C65.1553 143.71 72.9697 143.499 81.3076 143.734C85.1062 143.858 87.151 146.158 87.8902 149.663C88.2007 166.865 87.9009 184.422 87.9992 201.681C88.0962 207.227 87.8636 208.928 83.17 212.087Z" fill="#FEFDFE"/>
<path d="M83.17 212.087C75.8702 212.746 58.0313 212.821 50.9673 211.237C46.0215 210.129 47.0939 194.793 47.1064 189.812C47.138 177.188 46.9431 163.188 47.1704 150.447C47.2643 145.192 52.8995 143.553 56.7645 143.603C65.1553 143.71 72.9697 143.499 81.3076 143.734C85.1062 143.858 87.151 146.158 87.8902 149.663C86.2645 150.396 85.9224 151.351 84.6352 151.877C76.481 151.407 59.3354 151.758 50.5816 151.954C50.5532 167.86 50.9331 185.459 50.5292 201.213C61.8802 200.93 73.1898 201.237 84.4532 200.987C84.5337 199.676 84.6018 197.281 84.7704 196.068C84.93 197.993 84.6983 200.267 85.523 201.52C86.5336 201.66 86.9624 201.704 87.9992 201.681C88.0962 207.227 87.8636 208.928 83.17 212.087Z" fill="#F86B09"/>
<path d="M67.0042 203.955C67.9311 203.714 68.9155 204 69.5707 204.699C70.2255 205.398 70.4465 206.4 70.1472 207.311C69.8474 208.221 69.0747 208.895 68.1326 209.067C66.748 209.321 65.4109 208.432 65.1071 207.056C64.8033 205.68 65.6417 204.309 67.0042 203.955Z" fill="#FEFDFE"/>
<path d="M62.5952 148.173C65.1622 147.769 69.2526 147.395 71.667 148.407C68.835 149.213 65.4113 148.969 62.5952 148.173Z" fill="#FC9F4F"/>
<path d="M84.6352 151.876C85.9225 151.35 86.2645 150.395 87.8903 149.662C88.2008 166.865 87.901 184.422 87.9993 201.681C86.9624 201.703 86.5336 201.659 85.523 201.52C84.6984 200.266 84.9301 197.992 84.7704 196.068C84.2776 181.906 84.6219 166.153 84.6352 151.876Z" fill="#FB5704"/>
<path d="M58.8394 160.221C62.4165 160.208 76.9684 159.282 79.1137 161.168C79.9303 165.016 80.1848 172.923 79.0643 176.65C77.8059 178.069 78.2361 177.656 75.9791 178.046C70.1628 178.197 63.0482 178.685 57.3787 177.989C54.4229 177.626 55.2151 163.956 55.9548 161.455C57.1402 160.154 56.7786 160.53 58.8394 160.221Z" fill="#FEBD84"/>
<path d="M56.0333 182.789C63.8766 182.659 71.7212 182.643 79.5649 182.741C79.617 185.638 79.9017 191.202 78.9832 193.781C72.219 194.047 65.2787 193.747 58.5087 193.885C54.1434 193.973 55.1664 185.324 56.0333 182.789Z" fill="#FEBD84"/>
<path d="M62.1221 65.2503L65.5271 65.1882C94.9097 64.7646 125.18 65.192 154.64 65.1678L185.12 65.1329C208.739 65.1161 209.791 63.1044 209.757 87.2458L209.717 112.287L202.253 112.316C202.28 106.178 203.621 76.4759 200.53 73.1685C196.636 71.6522 179.806 72.3314 174.245 72.3531L103.399 72.3484L80.127 72.2888C76.0766 72.2751 62.3022 70.7198 61.962 75.9421C61.5091 82.8942 61.6546 90.4457 61.6613 97.4352L61.6417 139.328L54.3513 139.469C54.3678 129.32 53.2762 74.8901 55.3561 70.5158C56.7395 67.6063 59.2295 66.2772 62.1221 65.2503Z" fill="#F86B09"/>
<path d="M92.3768 162.247L154.278 162.158L154.283 182.592C152.722 182.551 149.766 182.21 148.656 183.198C146.145 181.799 120.384 182.959 115.08 182.664C108.473 182.033 99.3812 182.723 92.3724 182.422C92.2977 175.697 92.299 168.972 92.3768 162.247Z" fill="#F86B09"/>
<path d="M131.321 169.211C133.099 168.946 134.772 170.127 135.119 171.893C135.466 173.659 134.366 175.387 132.62 175.816C131.416 176.112 130.147 175.722 129.317 174.8C128.487 173.878 128.23 172.573 128.649 171.405C129.068 170.237 130.094 169.394 131.321 169.211Z" fill="#FD8326"/>
<path d="M115.079 182.666C120.384 182.96 146.144 181.801 148.656 183.2C149.128 186.258 150.2 194.932 151.715 197.257C152.817 197.383 153.062 197.41 153.876 198.156C154.662 199.759 154.374 202.362 154.32 204.223L119.738 204.198C117.281 204.199 101.774 204.751 101.001 203.345C96.801 195.708 108.502 197.355 112.519 197.37L115.079 182.666Z" fill="#EC5D03"/>
<path d="M114.947 138.971C114.88 135.902 114.374 130.294 115.927 127.862C116.418 127.573 116.957 127.376 117.519 127.282C123.001 126.315 141.331 127.207 147.933 127.084C148.61 127.072 149.762 127.742 150.356 128.166C150.857 131.112 150.621 139.358 150.67 142.874C150.696 144.305 151.072 151.208 149.162 151.366C142.318 151.938 121.839 153.136 115.993 151.361C114.451 149.316 114.977 142.848 115.025 140.048L114.947 138.971Z" fill="#FEBD84"/>
<path d="M115.025 140.049C120.181 139.999 146.664 139.525 149.914 140.134C150.282 141.203 150.453 141.754 150.671 142.875C150.696 144.306 151.072 151.209 149.162 151.368C142.318 151.939 121.84 153.137 115.993 151.362C114.451 149.317 114.977 142.849 115.025 140.049Z" fill="#FEBD84"/>
<path d="M150.356 128.166C150.857 131.112 150.622 139.359 150.671 142.874C150.453 141.753 150.282 141.202 149.913 140.133C146.664 139.524 120.181 139.998 115.025 140.048L114.947 138.972C122.168 139.468 131.343 138.865 138.695 138.957C142.226 139.001 146.649 138.477 150.058 138.977C150.028 135.643 149.858 131.387 150.356 128.166Z" fill="#FECFA8"/>
<path d="M73.447 127.081C78.8185 126.861 103.7 126.193 107.288 128.12C108.201 129.147 108.225 133.631 108.008 135.085C107.331 139.619 109.629 148.693 106.452 151.972L92.4398 152.01C91.8366 137.834 83.2002 139.309 72.3692 139.419C72.1739 135.715 71.3782 130.078 73.447 127.081Z" fill="#FEBD84"/>
<path d="M99.9546 139.295C101.885 138.634 105.689 138.752 107.53 139.74C105.697 139.872 101.265 140.415 99.9546 139.295Z" fill="#FECFA8"/>
</svg>
