<svg width="277" height="277" viewBox="0 0 277 277" fill="none" xmlns="http://www.w3.org/2000/svg">
<rect width="277" height="277" fill="white"/>
<path d="M55.7859 108.08C56.5713 139.414 55.0962 171.247 55.9901 202.615C56.1723 209.008 58.7851 213.052 65.4778 213.258C71.7475 213.638 77.9184 213.492 84.1781 213.49L119.666 213.435C122.346 213.419 135.176 212.403 135.33 215.127C129.816 217.76 77.0298 214.426 67.6298 215.866C63.67 216.473 55.8717 213.06 54.3335 208.454C52.0496 201.615 53.0117 194.324 53.0117 186.947L52.9907 153.123C52.9737 133.463 52.8847 113.62 52.9894 93.9528C52.9992 92.1107 53.5705 87.8033 54.2298 86.1411C55.0721 84.0177 58.5274 80.5472 60.6961 79.7123C62.4363 79.0424 63.2158 78.7979 65.0913 78.7803C88.6256 78.5591 112.308 78.672 135.834 78.6835L173.613 78.6823C180.526 78.6733 190.643 78.1139 197.387 79.4109C200.868 80.0802 203.658 84.8713 205.475 87.8853C205.543 93.4126 205.22 140.473 205.954 141.872C212.606 138.552 216.021 141.038 218.037 147.694C215.221 155.421 210.526 158.477 205.598 165.182C205.522 173.207 205.52 181.233 205.591 189.258C205.658 205.229 207.149 217.59 186.125 215.849C181.766 215.489 175.802 216.408 171.641 215.547L171.572 214.879C178.09 209.465 202.017 221.398 202.96 202.201C203.5 191.208 202.488 178.749 203.024 168.11C196.142 176.273 187.832 186.37 180.453 194.294C180.085 194.69 176.684 195.899 175.917 196.17C174.87 198.686 175.272 203.02 173.983 205.443C166.774 219.001 151.132 220.88 138.615 215.207C152.478 206.68 143.51 201.61 152.219 190.663C155.721 186.261 160.787 187.867 164.772 185.838C164.87 185.788 166.715 180.914 168.219 179.383C179.644 167.755 191.986 156.023 203.024 144.103C203.007 139.572 203.46 110.186 202.543 108.031L106.141 108.066C91.3463 108.073 70.0927 108.758 55.7859 108.08Z" fill="#FD8326"/>
<path d="M55.7859 108.08C56.5713 139.414 55.0962 171.247 55.9901 202.615C56.1723 209.008 58.7851 213.052 65.4778 213.258C71.7475 213.638 77.9184 213.492 84.1781 213.49L119.666 213.435C122.346 213.419 135.176 212.403 135.33 215.127C129.816 217.76 77.0298 214.426 67.6298 215.866C63.67 216.473 55.8717 213.06 54.3335 208.454C52.0496 201.615 53.0117 194.324 53.0117 186.947L52.9907 153.123C52.9737 133.463 52.8847 113.62 52.9894 93.9528C52.9992 92.1107 53.5705 87.8033 54.2298 86.1411C55.0721 84.0177 58.5274 80.5472 60.6961 79.7123C62.4363 79.0424 63.2158 78.7979 65.0913 78.7803C88.6256 78.5591 112.308 78.672 135.834 78.6835L173.613 78.6823C180.526 78.6733 190.643 78.1139 197.387 79.4109C200.868 80.0802 203.658 84.8713 205.475 87.8853C205.543 93.4126 205.22 140.473 205.954 141.872C212.606 138.552 216.021 141.038 218.037 147.694C215.221 155.421 210.526 158.477 205.598 165.182C205.522 173.207 205.52 181.233 205.591 189.258C205.658 205.229 207.149 217.59 186.125 215.849C181.766 215.489 175.802 216.408 171.641 215.547L171.572 214.879C178.09 209.465 202.017 221.398 202.96 202.201C203.5 191.208 202.488 178.749 203.024 168.11C196.142 176.273 187.832 186.37 180.453 194.294C180.085 194.69 176.684 195.899 175.917 196.17C174.87 198.686 175.272 203.02 173.983 205.443C166.774 219.001 151.132 220.88 138.615 215.207C152.478 206.68 143.51 201.61 152.219 190.663C155.721 186.261 160.787 187.867 164.772 185.838C164.87 185.788 166.715 180.914 168.219 179.383C179.644 167.755 191.986 156.023 203.024 144.103C203.007 139.572 203.46 110.186 202.543 108.031L202.16 106.308L202.656 105.543C203.628 101.672 203.962 83.3518 198.508 82.1683C187.183 79.7114 172.601 80.6885 160.775 80.6986L108.793 80.6578L79.0588 80.6735C74.1141 80.6915 67.8889 80.5644 63.0144 81.2479C60.0351 81.6656 57.5509 85.119 55.9875 87.5497C55.4962 93.4398 55.5019 99.5315 55.4574 105.442C55.5138 105.931 55.6847 107.717 55.7859 108.08Z" fill="#FB5704"/>
<path d="M205.954 141.873C212.606 138.553 216.021 141.039 218.037 147.695C215.222 155.422 210.526 158.478 205.598 165.183C205.522 173.208 205.52 181.234 205.591 189.259C205.658 205.23 207.149 217.591 186.125 215.85C181.766 215.49 175.802 216.409 171.641 215.548L171.572 214.88C178.09 209.466 202.017 221.399 202.96 202.202C203.5 191.209 202.488 178.75 203.024 168.111C203.91 166.732 204.004 164.827 204.208 163.178C199.962 167.681 187.719 182.337 184.077 187.258C181.222 183.838 177.022 180.282 173.656 177.256C180.865 169.849 188.12 162.488 195.421 155.174C197.258 153.334 205.526 145.331 206.459 143.786L205.671 143.299L205.954 141.873Z" fill="#FEFDFE"/>
<path d="M205.954 141.873C212.606 138.553 216.021 141.039 218.037 147.695C215.222 155.422 210.526 158.478 205.598 165.183C205.522 173.208 205.52 181.234 205.591 189.259C205.658 205.23 207.149 217.591 186.125 215.85C181.766 215.49 175.802 216.409 171.641 215.548L171.572 214.88C178.09 209.466 202.017 221.399 202.96 202.202C203.5 191.209 202.488 178.75 203.024 168.111C203.91 166.732 204.004 164.827 204.208 163.178C207.147 159.605 213.309 153.263 214.796 149.566C217.133 143.754 211.624 141.465 206.459 143.786L205.671 143.299L205.954 141.873Z" fill="#FB5704"/>
<path d="M160.392 188.495C167.139 187.973 168.695 190.403 172.425 195.454C174.456 207.802 166.597 213.393 155.799 215.641C154.624 215.756 153.446 215.821 152.266 215.833C150.039 215.867 144.94 216.19 143.326 214.62C144.217 213.374 145.588 213.169 146.93 210.947C149.841 206.128 149.492 200.078 152.028 195.032C154.174 190.762 156.274 189.902 160.392 188.495Z" fill="#FD8326"/>
<path d="M171.495 179.109C174.887 180.802 179.466 186.122 182.539 189.003L177.719 193.323C177.516 193.364 175.533 193.431 175.415 193.36C168.228 189.008 165.19 185.719 171.495 179.109Z" fill="#FEFDFE"/>
<path d="M55.4565 105.443C81.2218 105.943 107.844 105.598 133.67 105.574C156.286 105.554 180.18 106.085 202.656 105.544L202.16 106.31L202.543 108.032L106.14 108.067C91.3456 108.075 70.0919 108.76 55.785 108.082C55.6838 107.718 55.5129 105.932 55.4565 105.443Z" fill="#FB5704"/>
<path d="M84.8751 89.8975C86.3063 89.3499 87.9231 89.6469 89.0674 90.6676C90.2112 91.6882 90.6911 93.262 90.3119 94.7487C89.9328 96.2349 88.7574 97.3856 87.265 97.7321C85.1649 98.2189 83.047 96.9956 82.4176 94.9316C81.7877 92.868 82.8619 90.6681 84.8751 89.8975Z" fill="#FEFDFE"/>
<path d="M70.3928 89.9407C72.4164 89.1237 74.7243 90.0405 75.6381 92.024C76.5519 94.008 75.7502 96.3607 73.8155 97.3709C72.4776 98.0698 70.8638 97.9744 69.6173 97.1228C68.3707 96.2712 67.6934 94.8013 67.8558 93.2992C68.0183 91.7971 68.9933 90.5061 70.3928 89.9407Z" fill="#FEFDFE"/>
<path d="M99.4736 89.9606C100.868 89.4426 102.432 89.7243 103.559 90.6956C104.685 91.6668 105.196 93.1748 104.891 94.6314C104.586 96.0884 103.514 97.2643 102.093 97.7012C99.9806 98.3507 97.7359 97.2 97.027 95.1049C96.318 93.0097 97.4022 90.7301 99.4736 89.9606Z" fill="#FEFDFE"/>
<path d="M138.653 140.367C142.899 141.544 162.882 168.678 167.561 173.959C164.101 176.762 163.785 177.681 161.888 181.603C154.717 182.719 151.073 184.432 146.677 190.448L96.2602 190.45C92.6183 190.476 77.9344 191.266 76.2031 189.01C76.3665 187.051 97.9727 164.841 100.894 163.81C103.898 164.206 107.593 169.489 109.63 171.961C117.308 163.097 125.419 154.521 133.231 145.767C134.943 143.848 136.699 142.045 138.653 140.367Z" fill="#FD8326"/>
<path d="M92.1701 130.363C97.8642 129.275 103.384 132.94 104.597 138.615C105.811 144.291 102.273 149.897 96.633 151.238C92.8716 152.131 88.9213 150.917 86.3087 148.064C83.6967 145.21 82.8318 141.164 84.0482 137.49C85.2651 133.816 88.3723 131.089 92.1701 130.363Z" fill="#FD8326"/>
<path d="M45.7331 64.0217C46.1634 62.3104 46.7286 59.0743 47.8163 58C48.6991 59.1158 48.6631 61.1137 48.7735 62.5892C51.7185 69.7023 54.5163 67.5555 60.7014 69.1289C47.7146 71.8099 50.2506 71.7731 47.5742 83.3702C47.0404 79.8119 46.7052 73.7305 43.8026 71.6294C42.1334 70.4211 38.7731 70.1364 38 68.9614C42.0603 67.6179 43.6008 67.611 45.7331 64.0217Z" fill="#FF912E"/>
<path d="M45.7329 64.0217C46.1632 62.3104 46.7285 59.0743 47.8161 58C48.699 59.1158 48.6629 61.1137 48.7734 62.5892C47.5392 63.8481 47.7763 64.0127 46.2984 64.2577L45.7329 64.0217Z" fill="#FD8326"/>
<path d="M225.11 115.561C230.107 119.77 220.83 124.494 238.251 126.969C228.878 129.13 227.065 128.824 226.081 138.834C224.313 137.068 225.03 133.497 222.086 129.011C219.235 128.316 215.954 127.716 213.049 127.115C222.569 125.295 223.919 125.522 225.11 115.561Z" fill="#FC9F4F"/>
</svg>
